<svg width="18" height="24" viewBox="0 0 18 24" fill="none" xmlns="http://www.w3.org/2000/svg">
<path d="M0.25 20.4615V19.2115H2.26922V9.30769C2.26922 7.67469 2.78605 6.2384 3.81972 4.99881C4.85336 3.75921 6.16346 2.98717 7.75 2.68269V2C7.75 1.65277 7.87125 1.35763 8.11375 1.11456C8.35625 0.871521 8.65073 0.75 8.99719 0.75C9.34363 0.75 9.63903 0.871521 9.88341 1.11456C10.1278 1.35763 10.25 1.65277 10.25 2V2.68269C11.8365 2.98717 13.1466 3.75921 14.1803 4.99881C15.2139 6.2384 15.7308 7.67469 15.7308 9.30769V19.2115H17.75V20.4615H0.25ZM8.99575 23.7308C8.43929 23.7308 7.96434 23.5331 7.57091 23.1376C7.17749 22.7422 6.98078 22.2668 6.98078 21.7115H11.0192C11.0192 22.2708 10.8211 22.7472 10.4248 23.1406C10.0286 23.5341 9.55221 23.7308 8.99575 23.7308ZM3.51922 19.2115H14.4808V9.30769C14.4808 7.78846 13.9471 6.49519 12.8798 5.42788C11.8125 4.36058 10.5192 3.82694 9 3.82694C7.48077 3.82694 6.1875 4.36058 5.12019 5.42788C4.05288 6.49519 3.51922 7.78846 3.51922 9.30769V19.2115Z" fill="black"/>
</svg>
