<svg width="13" height="13" viewBox="0 0 13 13" fill="none" xmlns="http://www.w3.org/2000/svg">
<path d="M1.44444 11.5556H2.47361L9.53333 4.49583L8.50417 3.46667L1.44444 10.5264V11.5556ZM0 13V9.93056L9.53333 0.415278C9.67778 0.28287 9.83727 0.180556 10.0118 0.108333C10.1863 0.0361111 10.3699 0 10.5625 0C10.7551 0 10.9417 0.0361111 11.1222 0.108333C11.3028 0.180556 11.4593 0.288889 11.5917 0.433333L12.5847 1.44444C12.7292 1.57685 12.8345 1.73333 12.9007 1.91389C12.9669 2.09444 13 2.275 13 2.45556C13 2.64815 12.9669 2.83171 12.9007 3.00625C12.8345 3.18079 12.7292 3.34028 12.5847 3.48472L3.06944 13H0ZM9.00972 3.99028L8.50417 3.46667L9.53333 4.49583L9.00972 3.99028Z" fill="black" fill-opacity="0.8"/>
</svg>
