<svg width="18" height="16" viewBox="0 0 18 16" fill="none" xmlns="http://www.w3.org/2000/svg">
<path d="M8.99967 7.28201C8.03718 7.28201 7.21322 6.9393 6.5278 6.25389C5.84238 5.56847 5.49967 4.74451 5.49967 3.78201C5.49967 2.81949 5.84238 1.99552 6.5278 1.31011C7.21322 0.624691 8.03718 0.281982 8.99967 0.281982C9.96218 0.281982 10.7861 0.624691 11.4715 1.31011C12.157 1.99552 12.4997 2.81949 12.4997 3.78201C12.4997 4.74451 12.157 5.56847 11.4715 6.25389C10.7861 6.9393 9.96218 7.28201 8.99967 7.28201ZM0.833008 15.7179V13.7974C0.833008 13.3158 0.973232 12.8652 1.25368 12.4456C1.53413 12.0261 1.91143 11.7004 2.38558 11.4685C3.48643 10.9405 4.58802 10.5445 5.69037 10.2806C6.79273 10.0166 7.89583 9.88455 8.99967 9.88455C10.1035 9.88455 11.2066 10.0166 12.309 10.2806C13.4113 10.5445 14.5129 10.9405 15.6138 11.4685C16.0879 11.7004 16.4652 12.0261 16.7457 12.4456C17.0261 12.8652 17.1663 13.3158 17.1663 13.7974V15.7179H0.833008ZM1.99967 14.5512H15.9997V13.7974C15.9997 13.5386 15.9163 13.2956 15.7495 13.0682C15.5827 12.8409 15.352 12.6487 15.0574 12.4916C14.0971 12.0264 13.107 11.6701 12.0871 11.4225C11.0673 11.175 10.0381 11.0512 8.99967 11.0512C7.96124 11.0512 6.93209 11.175 5.91221 11.4225C4.89231 11.6701 3.90224 12.0264 2.94199 12.4916C2.64733 12.6487 2.41661 12.8409 2.24984 13.0682C2.08306 13.2956 1.99967 13.5386 1.99967 13.7974V14.5512ZM8.99967 6.11535C9.64134 6.11535 10.1906 5.88687 10.6476 5.42993C11.1045 4.97298 11.333 4.42368 11.333 3.78201C11.333 3.14035 11.1045 2.59104 10.6476 2.1341C10.1906 1.67715 9.64134 1.44868 8.99967 1.44868C8.35801 1.44868 7.8087 1.67715 7.35176 2.1341C6.89481 2.59104 6.66634 3.14035 6.66634 3.78201C6.66634 4.42368 6.89481 4.97298 7.35176 5.42993C7.8087 5.88687 8.35801 6.11535 8.99967 6.11535Z" fill="black"/>
</svg>
