<svg width="14" height="22" viewBox="0 0 14 22" fill="none" xmlns="http://www.w3.org/2000/svg">
<path d="M2.24999 21.8334C1.75139 21.8334 1.33507 21.6664 1.00104 21.3324C0.667014 20.9983 0.5 20.582 0.5 20.0834V1.91674C0.5 1.41813 0.667014 1.00182 1.00104 0.66779C1.33507 0.333762 1.75139 0.166748 2.24999 0.166748H11.75C12.2486 0.166748 12.6649 0.333762 12.999 0.66779C13.333 1.00182 13.5 1.41813 13.5 1.91674V20.0834C13.5 20.582 13.333 20.9983 12.999 21.3324C12.6649 21.6664 12.2486 21.8334 11.75 21.8334H2.24999ZM1.58333 19.1251V20.0834C1.58333 20.2501 1.65277 20.4029 1.79166 20.5418C1.93056 20.6806 2.08334 20.7501 2.24999 20.7501H11.75C11.9167 20.7501 12.0694 20.6806 12.2083 20.5418C12.3472 20.4029 12.4167 20.2501 12.4167 20.0834V19.1251H1.58333ZM1.58333 18.0417H12.4167V3.95841H1.58333V18.0417ZM1.58333 2.87508H12.4167V1.91674C12.4167 1.75008 12.3472 1.59731 12.2083 1.45841C12.0694 1.31952 11.9167 1.25008 11.75 1.25008H2.24999C2.08334 1.25008 1.93056 1.31952 1.79166 1.45841C1.65277 1.59731 1.58333 1.75008 1.58333 1.91674V2.87508Z" fill="black"/>
</svg>
